<svg xmlns="http://www.w3.org/2000/svg" version="1.1" xmlns:xlink="http://www.w3.org/1999/xlink" xmlns:svgjs="http://svgjs.dev/svgjs" width="100%" height="100%" viewBox="0 0 1000 600"><rect width="1000" height="600" x="0" y="0" fill="#ffffff"/><g><rect width="333.3333333333333" height="333.3333333333333" rx="13.333333333333334" ry="13.333333333333334" y="208.30692939280345" fill="#003399" transform="matrix(0.6717372772533292,0,0,0.6717372772533292,0,48.11628845676475)" x="186.08474731445312"/><path d="M449.22473586109624 445.6928587360227L449.22473586109624 449.97360134697146L385.22241340959295 449.97360134697146L385.22241340959295 445.6928587360227Q394.51475712604287 445.6928587360227 399.1087248060855 443.9875222487341Q403.70269248612817 442.2821857614455 405.1644094752326 437.54900693958336Q406.6261264643371 432.8506309031761 406.6261264643371 423.8019066849103L406.6261264643371 423.8019066849103L406.6261264643371 323.70909571670825L348.50547475470654 449.97360134697146L344.95559063830996 449.97360134697146L286.9741500704989 323.70909571670825L286.9741500704989 423.8019066849103Q286.9741500704989 432.95503925954074 288.43586705960337 437.68821808140285Q289.89758404870787 442.3865941178101 294.4219461578408 444.02232503418895Q298.9463082669737 445.6928587360227 308.2734547688785 445.6928587360227L308.2734547688785 445.6928587360227L308.2734547688785 449.97360134697146L256.2780932993048 449.97360134697146L256.2780932993048 445.6928587360227Q265.6748453721193 445.6928587360227 270.1644046957974 443.9875222487341Q274.61916123402057 442.2821857614455 275.97646986676045 437.54900693958336Q277.29897571404547 432.8506309031761 277.29897571404547 423.8019066849103L277.29897571404547 423.8019066849103L277.29897571404547 325.79726284400033Q277.29897571404547 313.6858935057061 273.0878386740063 308.7787007565696Q268.87670163396723 303.87150800743314 256.2780932993048 303.87150800743314L256.2780932993048 303.87150800743314L256.2780932993048 299.97359603648783L298.598280412425 299.97359603648783L353.0298368638395 417.18937744848523L406.6261264643371 299.97359603648783L449.22473586109624 299.97359603648783L449.22473586109624 303.87150800743314Q439.7931810028269 303.87150800743314 435.1992133227842 305.61164728017656Q430.6052456427416 307.3169837674651 429.28273979545656 312.01535980387234Q427.92543116271673 316.71373584027964 427.92543116271673 325.79726284400033L427.92543116271673 325.79726284400033L427.92543116271673 423.8019066849103Q427.92543116271673 432.95503925954074 429.3871481518212 437.68821808140285Q430.8488651409256 442.3865941178101 435.37322725005856 444.02232503418895Q439.8975893591915 445.6928587360227 449.22473586109624 445.6928587360227L449.22473586109624 445.6928587360227Z " fill="#000000" transform="matrix(0.6717372772533292,0,0,0.6717372772533292,0,48.11628845676475)"/><path d="M791.4084090918329 442.45318514340374L791.4084090918329 446.63875701959876L728.8290051867701 446.63875701959876L728.8290051867701 442.45318514340374Q737.9147587716814 442.45318514340374 742.4065920046712 440.78576220085444Q746.8984252376611 439.1183392583052 748.3276449027032 434.4903898667399Q749.7568645677454 429.8964695148185 749.7568645677454 421.0489192074143L749.7568645677454 421.0489192074143L749.7568645677454 323.18140119166617L692.9283683624953 446.63875701959876L689.4574063188213 446.63875701959876L632.7650262721468 323.18140119166617L632.7650262721468 421.0489192074143Q632.7650262721468 429.99855663375007 634.194245937189 434.6265060253154Q635.6234656022311 439.2204263772368 640.0472407559332 440.8197912404983Q644.4710159096353 442.45318514340374 653.5907985341905 442.45318514340374L653.5907985341905 442.45318514340374L653.5907985341905 446.63875701959876L602.7514133062601 446.63875701959876L602.7514133062601 442.45318514340374Q611.939254010103 442.45318514340374 616.3290001241612 440.78576220085444Q620.6847171985755 439.1183392583052 622.0118497446863 434.4903898667399Q623.3049532511529 429.8964695148185 623.3049532511529 421.0489192074143L623.3049532511529 421.0489192074143L623.3049532511529 325.2231435702979Q623.3049532511529 313.38103777423385 619.1874394542456 308.5829431844493Q615.0699256573383 303.7848485946647 602.7514133062601 303.7848485946647L602.7514133062601 303.7848485946647L602.7514133062601 299.97359615455207L644.1307255131967 299.97359615455207L697.3521435161974 414.58340167508044L749.7568645677454 299.97359615455207L791.4084090918329 299.97359615455207L791.4084090918329 303.7848485946647Q782.1865393483463 303.7848485946647 777.6947061153564 305.4863005768578Q773.2028728823666 307.15372351940704 771.9097693758998 311.7476438713285Q770.5826368297892 316.34156422324986 770.5826368297892 325.2231435702979L770.5826368297892 325.2231435702979L770.5826368297892 421.0489192074143Q770.5826368297892 429.99855663375007 772.0118564948314 434.6265060253154Q773.4410761598737 439.2204263772368 777.8648513135757 440.8197912404983Q782.2886264672778 442.45318514340374 791.4084090918329 442.45318514340374L791.4084090918329 442.45318514340374ZM894.4143120938043 426.05118803506207L894.4143120938043 426.05118803506207L894.4143120938043 432.2785022898888Q890.3308273365408 437.7912067121946 884.341716359221 443.23585305521254Q878.3866344215451 448.6804993982305 870.8321876206076 448.6804993982305L870.8321876206076 448.6804993982305Q863.8902635332597 448.6804993982305 861.6103178771209 443.40599825343185Q859.364401260626 438.1314971086332 859.364401260626 432.2785022898888L859.364401260626 432.2785022898888Q852.1842738957711 438.0294099897016 844.7659432534091 443.33794017414414Q837.347612611047 448.6804993982305 827.6493363125463 448.6804993982305L827.6493363125463 448.6804993982305Q816.3857241904279 448.6804993982305 810.2264680148888 441.3302268351563Q804.0672118393497 433.9459252324381 804.0672118393497 423.05663254640217L804.0672118393497 423.05663254640217Q804.0672118393497 414.10699512006636 809.9542356977379 407.23312911200617Q815.8072305164823 400.3252340643021 824.7228389031742 395.32296523665434Q833.6384472898661 390.2866673693627 843.0304622315721 386.8157053256888Q852.4224771732781 383.3447432820148 859.364401260626 381.06479762587605L859.364401260626 381.06479762587605L859.364401260626 377.0153419082564Q859.364401260626 370.31162109841557 858.0372687145154 364.3905682003835Q856.7101361684048 358.46951530235145 852.7627675697167 354.76034998117046Q848.8153989710287 351.0511846599895 840.818574654721 351.0511846599895L840.818574654721 351.0511846599895Q830.9841821976448 351.0511846599895 828.6021494225745 356.2576277255004Q826.2201166475041 361.46407079101135 826.2201166475041 369.5970112658944L826.2201166475041 369.5970112658944Q826.2201166475041 374.39510585567905 824.280461387804 377.117429027188Q822.3748351677477 379.8737812383408 816.9982469040174 379.8737812383408L816.9982469040174 379.8737812383408Q811.9619490367259 379.8737812383408 809.9542356977379 377.0153419082564Q807.9124933191061 374.156902578172 807.9124933191061 369.5970112658944L807.9124933191061 369.5970112658944Q807.9124933191061 360.6133447999148 813.901604296426 355.13466941725295Q819.8566862341019 349.62196499494723 828.2958880657798 347.1038160613014Q836.7350898974576 344.5856671276556 844.1534205398195 344.5856671276556L844.1534205398195 344.5856671276556Q862.9374504232316 344.5856671276556 870.1175777880865 352.24220104752465Q877.2977051529415 359.8987349673937 877.2977051529415 378.44456157329864L877.2977051529415 378.44456157329864L877.2977051529415 412.1673398603662Q877.2977051529415 416.38694077620517 877.3657632322293 421.5593548020722Q877.3997922718731 426.76579786758316 877.8761988268872 429.522150078736L877.8761988268872 429.522150078736Q878.1144021043942 431.56389245736773 879.2033313729978 433.231315399917Q880.2922606416014 434.89873834246623 882.5722062977402 434.89873834246623L882.5722062977402 434.89873834246623Q884.2396292402893 434.89873834246623 886.6216620153598 433.12922828098544Q889.0036947904301 431.3256891798607 891.2155823672812 429.21588872194127Q893.4274699441322 427.14011730366565 894.4143120938043 426.05118803506207ZM859.364401260626 425.0983749250339L859.364401260626 425.0983749250339L859.364401260626 387.19002476177127Q852.0481577371957 389.9463769729241 843.3707526280107 394.13194884911917Q834.6933475188258 398.31752072531424 828.466033263999 404.23857362334627Q822.2727480488161 410.15962652137836 822.2727480488161 418.0543637187544L822.2727480488161 418.0543637187544Q822.2727480488161 424.51988125108824 826.3222037664357 430.2367599112571Q830.4056885236992 435.98766761106987 837.6879030074857 435.98766761106987L837.6879030074857 435.98766761106987Q843.3026945487229 435.98766761106987 849.1216603278235 432.3465603691766Q854.90659706728 428.70545312728336 859.364401260626 425.0983749250339ZM970.1289253013979 356.6659762012267L970.1289253013979 356.6659762012267Q970.1289253013979 360.6133447999148 967.2024278920258 363.6759583678624Q964.2759304826536 366.73857193581 960.1924457253901 366.73857193581L960.1924457253901 366.73857193581Q956.6193965627846 366.73857193581 954.1012476291387 364.79891667610985Q951.5830986954929 362.89329045605353 949.5073272772174 360.9876642359973Q947.3975268192978 359.08203801594095 944.879377885652 359.08203801594095L944.879377885652 359.08203801594095Q941.7827352780606 359.08203801594095 937.9034247586603 363.9141616453694Q933.9900851996161 368.74628527479786 930.5191231559422 375.6882093621458L930.5191231559422 375.6882093621458L930.5191231559422 423.66915525999167Q930.5191231559422 433.12922828098544 934.1262013581916 437.7912067121946Q937.6992505207971 442.45318514340374 947.873933374312 442.45318514340374L947.873933374312 442.45318514340374L947.873933374312 446.63875701959876L896.6602287102992 446.63875701959876L896.6602287102992 442.45318514340374Q904.0785593526612 442.45318514340374 907.3793761981158 440.78576220085444Q910.6801930435704 439.1183392583052 911.4968899950231 435.1369416199733Q912.3476159861198 431.18957302128524 912.3476159861198 424.2816779735812L912.3476159861198 424.2816779735812L912.3476159861198 381.43911706195854Q912.3476159861198 371.1623470895121 911.020483440009 365.10517803290463Q909.7273799335424 359.08203801594095 903.3639495201401 359.08203801594095L903.3639495201401 359.08203801594095Q900.3693940314802 359.08203801594095 896.6602287102992 360.5112576809832L896.6602287102992 360.5112576809832L895.469212322764 356.6659762012267L926.0953480022401 344.5856671276556L930.5191231559422 344.5856671276556L930.5191231559422 366.976775213317Q933.037272089588 362.41688390103945 936.746437410769 357.2104408355285Q940.45560273195 352.0039977700176 945.3557844406662 348.2948324488366Q950.2559661493823 344.5856671276556 956.1429900077705 344.5856671276556L956.1429900077705 344.5856671276556Q961.3834621129254 344.5856671276556 965.7732082269836 347.7503678145348Q970.1289253013979 350.915068501414 970.1289253013979 356.6659762012267ZM1073.7473510169586 395.1868490780789L1073.7473510169586 395.1868490780789Q1073.7473510169586 409.5471038077888 1067.7922690792827 422.0697903967301Q1061.871216181251 434.5584479460276 1051.0159525348588 442.2830399451844Q1040.1266598488228 449.97360290469726 1024.9156791280163 449.97360290469726L1024.9156791280163 449.97360290469726Q1010.6915405568818 449.97360290469726 1000.040451148353 442.5552722623353Q989.389361739824 435.1369416199733 983.5703959607235 423.2948358239092Q977.7854592212669 411.45273002784506 977.7854592212669 398.0793174478072L977.7854592212669 398.0793174478072Q977.7854592212669 384.19546927311137 983.706512119299 371.9790440409648Q989.627565017331 359.7966478484621 1000.4487996240792 352.1741429682369Q1011.2700342308276 344.5856671276556 1026.00460839662 344.5856671276556L1026.00460839662 344.5856671276556Q1040.4669502452614 344.5856671276556 1051.186097733078 351.42550409607196Q1061.871216181251 358.2313120248444 1067.7922690792827 369.699098384826Q1073.7473510169586 381.2009137844515 1073.7473510169586 395.1868490780789ZM1053.5000724288607 403.6941089890445L1053.5000724288607 403.6941089890445Q1053.5000724288607 396.51398162418957 1052.0708527638185 387.66643131678535Q1050.6416330987763 378.81888100938113 1047.1026129758145 370.5498243759226Q1043.5976218924966 362.28076774246404 1037.6085109151768 356.9722375580215Q1031.619399937857 351.663707373579 1022.3975301943706 351.663707373579L1022.3975301943706 351.663707373579Q1012.5971667769381 351.663707373579 1007.3907237114272 357.7549054698303Q1002.1842806459163 363.8461035660817 1000.2105963465722 372.5235086752666Q998.2369120472283 381.2009137844515 998.2369120472283 389.09565098182753L998.2369120472283 389.09565098182753Q998.2369120472283 396.1396621881071 999.7341897915583 405.1233286540867Q1001.2314675358881 414.10699512006636 1004.7704876588498 422.4781388724565Q1008.2754787421676 430.84928262484664 1014.2645897194874 436.3619870471523Q1020.2537006968071 441.8406624298142 1029.3394542817184 441.8406624298142L1029.3394542817184 441.8406624298142Q1039.7523404127403 441.8406624298142 1044.9587834782512 435.6814062542751Q1050.1652265437622 429.522150078736 1051.8326494863113 420.6745997713318Q1053.5000724288607 411.82704946392755 1053.5000724288607 403.6941089890445ZM1184.5118750577308 395.1868490780789L1184.5118750577308 395.1868490780789Q1184.5118750577308 409.5471038077888 1178.5908221596985 422.0697903967301Q1172.6697692616667 434.5584479460276 1161.7804765756305 442.2830399451844Q1150.8911838895947 449.97360290469726 1135.714232208432 449.97360290469726L1135.714232208432 449.97360290469726Q1121.4560645976537 449.97360290469726 1110.804975189125 442.5552722623353Q1100.1538857805958 435.1369416199733 1094.3689490411393 423.2948358239092Q1088.5499832620387 411.45273002784506 1088.5499832620387 398.0793174478072L1088.5499832620387 398.0793174478072Q1088.5499832620387 384.19546927311137 1094.471036160071 371.9790440409648Q1100.426118097747 359.7966478484621 1111.247352704495 352.1741429682369Q1122.0685873112434 344.5856671276556 1136.7691324373918 344.5856671276556L1136.7691324373918 344.5856671276556Q1151.2655033256772 344.5856671276556 1161.95062177385 351.42550409607196Q1172.6697692616667 358.2313120248444 1178.5908221596985 369.699098384826Q1184.5118750577308 381.2009137844515 1184.5118750577308 395.1868490780789ZM1164.2986255092765 403.6941089890445L1164.2986255092765 403.6941089890445Q1164.2986255092765 396.51398162418957 1162.8694058442343 387.66643131678535Q1161.4061571395482 378.81888100938113 1157.9011660562303 370.5498243759226Q1154.3621459332685 362.28076774246404 1148.3730349559487 356.9722375580215Q1142.3839239786291 351.663707373579 1133.1960832747864 351.663707373579L1133.1960832747864 351.663707373579Q1123.395719857354 351.663707373579 1118.189276791843 357.7549054698303Q1112.982833726332 363.8461035660817 1111.009149426988 372.5235086752666Q1109.0354651276439 381.2009137844515 1109.0354651276439 389.09565098182753L1109.0354651276439 389.09565098182753Q1109.0354651276439 396.1396621881071 1110.5327428719738 405.1233286540867Q1112.0300206163038 414.10699512006636 1115.5350116996217 422.4781388724565Q1119.0740318225835 430.84928262484664 1125.0631427999033 436.3619870471523Q1131.0522537772229 441.8406624298142 1140.1380073621342 441.8406624298142L1140.1380073621342 441.8406624298142Q1150.550893493156 441.8406624298142 1155.7233075190231 435.6814062542751Q1160.929750584534 429.522150078736 1162.631202566727 420.6745997713318Q1164.2986255092765 411.82704946392755 1164.2986255092765 403.6941089890445ZM1302.592642621933 442.45318514340374L1302.592642621933 446.63875701959876L1252.944273781538 446.63875701959876L1252.944273781538 442.45318514340374Q1260.4646915428316 442.45318514340374 1263.9016245468615 440.887849319786Q1267.3045285112476 439.3565425358122 1268.189283541988 435.3411158578365Q1269.1080676123725 431.3256891798607 1269.1080676123725 424.2816779735812L1269.1080676123725 424.2816779735812L1269.1080676123725 383.7190627180973Q1269.1080676123725 378.10427117686004 1268.2573416212758 372.11516019954024Q1267.4066156301792 366.12604922222044 1264.1398278243687 362.00853542531314Q1260.8390109789138 357.85699258876195 1253.5567964951274 357.85699258876195L1253.5567964951274 357.85699258876195Q1245.7641464166827 357.85699258876195 1239.298628884349 362.28076774246404Q1232.8331113520153 366.73857193581 1227.9329296432988 371.9790440409648L1227.9329296432988 371.9790440409648L1227.9329296432988 424.2816779735812Q1227.9329296432988 431.18957302128524 1228.8517137136832 435.1369416199733Q1229.7364687444237 439.1183392583052 1233.1393727088098 440.78576220085444Q1236.5422766731963 442.45318514340374 1243.9606073155583 442.45318514340374L1243.9606073155583 442.45318514340374L1243.9606073155583 446.63875701959876L1194.6865579112455 446.63875701959876L1194.6865579112455 442.45318514340374Q1201.968772395032 442.45318514340374 1205.0994440422674 440.5475589233474Q1208.196086649859 438.6079036636472 1208.9787545616678 434.5584479460276Q1209.7614224734766 430.47496318876415 1209.7614224734766 424.2816779735812L1209.7614224734766 424.2816779735812L1209.7614224734766 378.58067773187406Q1209.7614224734766 371.1623470895121 1208.4342899273659 365.00309091397304Q1207.107157381255 358.84383473843394 1202.1048885536075 358.84383473843394L1202.1048885536075 358.84383473843394Q1200.3013494524826 358.84383473843394 1198.3957232324265 359.35427033309185Q1196.4900970123704 359.8987349673937 1194.6865579112455 360.5112576809832L1194.6865579112455 360.5112576809832L1193.2573382462033 356.6659762012267L1223.5091544895968 344.5856671276556L1227.9329296432988 344.5856671276556L1227.9329296432988 365.51352650863095Q1233.922040620619 358.09519586626897 1242.4293005315844 351.3574460167842Q1250.9025314029059 344.5856671276556 1261.077214256421 344.5856671276556L1261.077214256421 344.5856671276556Q1271.8303907838813 344.5856671276556 1277.4792113647627 350.2004586688929Q1283.0940029059998 355.84927924977404 1285.0676872053436 364.3905682003835Q1287.041371504688 372.9318571509929 1287.041371504688 381.91552361697256L1287.041371504688 381.91552361697256L1287.041371504688 424.2816779735812Q1287.041371504688 433.7077219549311 1289.4234042797584 438.0974680689893Q1291.8394660944723 442.45318514340374 1302.592642621933 442.45318514340374L1302.592642621933 442.45318514340374Z " fill="0000" transform="matrix(0.6717372772533292,0,0,0.6717372772533292,0,48.11628845676475)"/></g></svg>